<svg width="16" height="16" viewBox="0 0 16 16" fill="none" xmlns="http://www.w3.org/2000/svg">
<g clip-path="url(#clip0_6_2)">
<rect width="16" height="16" fill="#9429E9"/>
<path opacity="0.4" d="M5.7318 16.16C4.58513 16.16 3.5518 15.9267 2.6318 15.46C1.72513 14.98 1.0118 14.32 0.491797 13.48C-0.0148698 12.64 -0.268203 11.6867 -0.268203 10.62C-0.268203 9.55333 -0.0148698 8.6 0.491797 7.76C1.0118 6.92 1.72513 6.26667 2.6318 5.8C3.5518 5.32 4.58513 5.08 5.7318 5.08C6.86513 5.08 7.8518 5.32 8.6918 5.8C9.54513 6.26667 10.1651 6.94 10.5518 7.82L8.1318 9.12C7.5718 8.13333 6.76513 7.64 5.7118 7.64C4.89846 7.64 4.22513 7.90667 3.6918 8.44C3.15846 8.97333 2.8918 9.7 2.8918 10.62C2.8918 11.54 3.15846 12.2667 3.6918 12.8C4.22513 13.3333 4.89846 13.6 5.7118 13.6C6.77846 13.6 7.58513 13.1067 8.1318 12.12L10.5518 13.44C10.1651 14.2933 9.54513 14.96 8.6918 15.44C7.8518 15.92 6.86513 16.16 5.7318 16.16Z" fill="#02FBEC"/>
<path d="M8.66115 11.162C7.58115 11.162 6.61515 10.946 5.76315 10.514C4.91115 10.082 4.24515 9.482 3.76515 8.714C3.29715 7.946 3.06315 7.076 3.06315 6.104C3.06315 5.132 3.29715 4.268 3.76515 3.512C4.24515 2.744 4.91115 2.15 5.76315 1.73C6.61515 1.298 7.58115 1.082 8.66115 1.082C9.76515 1.082 10.7191 1.322 11.5231 1.802C12.3271 2.27 12.8971 2.924 13.2331 3.764L10.5871 5.114C10.1431 4.238 9.49515 3.8 8.64315 3.8C8.03115 3.8 7.52115 4.004 7.11315 4.412C6.71715 4.82 6.51915 5.384 6.51915 6.104C6.51915 6.836 6.71715 7.412 7.11315 7.832C7.52115 8.24 8.03115 8.444 8.64315 8.444C9.49515 8.444 10.1431 8.006 10.5871 7.13L13.2331 8.48C12.8971 9.32 12.3271 9.98 11.5231 10.46C10.7191 10.928 9.76515 11.162 8.66115 11.162Z" fill="#02FBEC"/>
</g>
<defs>
<clipPath id="clip0_6_2">
<rect width="16" height="16" fill="white"/>
</clipPath>
</defs>
</svg>
