<svg width="134" height="30" viewBox="0 0 134 30" fill="none" xmlns="http://www.w3.org/2000/svg">
<g clip-path="url(#clip0_2_3)">
<rect width="134" height="30" rx="9" fill="#9429E9"/>
<path d="M17.8494 21.922C17.8494 21.99 17.8154 22.466 17.7474 23.35H3.9094C4.15873 24.4833 4.74807 25.3787 5.6774 26.036C6.60673 26.6933 7.76273 27.022 9.1454 27.022C10.0974 27.022 10.9361 26.886 11.6614 26.614C12.4094 26.3193 13.1007 25.866 13.7354 25.254L16.5574 28.314C14.8347 30.286 12.3187 31.272 9.0094 31.272C6.94673 31.272 5.12207 30.8753 3.5354 30.082C1.94873 29.266 0.724732 28.144 -0.136602 26.716C-0.997935 25.288 -1.4286 23.6673 -1.4286 21.854C-1.4286 20.0633 -1.00927 18.454 -0.170601 17.026C0.690732 15.5753 1.85807 14.4533 3.3314 13.66C4.8274 12.844 6.4934 12.436 8.3294 12.436C10.1201 12.436 11.7407 12.8213 13.1914 13.592C14.6421 14.3627 15.7754 15.4733 16.5914 16.924C17.4301 18.352 17.8494 20.018 17.8494 21.922ZM8.3634 16.448C7.16207 16.448 6.1534 16.788 5.3374 17.468C4.5214 18.148 4.02273 19.0773 3.8414 20.256H12.8514C12.6701 19.1 12.1714 18.182 11.3554 17.502C10.5394 16.7993 9.54207 16.448 8.3634 16.448ZM21.3806 5.772H26.6846V31H21.3806V5.772ZM50.0761 31.272C48.1268 31.272 46.3701 30.8753 44.8061 30.082C43.2648 29.266 42.0521 28.144 41.1681 26.716C40.3068 25.288 39.8761 23.6673 39.8761 21.854C39.8761 20.0407 40.3068 18.42 41.1681 16.992C42.0521 15.564 43.2648 14.4533 44.8061 13.66C46.3701 12.844 48.1268 12.436 50.0761 12.436C52.0028 12.436 53.6801 12.844 55.1081 13.66C56.5588 14.4533 57.6128 15.598 58.2701 17.094L54.1561 19.304C53.2041 17.6267 51.8328 16.788 50.0421 16.788C48.6594 16.788 47.5148 17.2413 46.6081 18.148C45.7014 19.0547 45.2481 20.29 45.2481 21.854C45.2481 23.418 45.7014 24.6533 46.6081 25.56C47.5148 26.4667 48.6594 26.92 50.0421 26.92C51.8554 26.92 53.2268 26.0813 54.1561 24.404L58.2701 26.648C57.6128 28.0987 56.5588 29.232 55.1081 30.048C53.6801 30.864 52.0028 31.272 50.0761 31.272ZM69.7956 31.272C67.8689 31.272 66.1349 30.8753 64.5936 30.082C63.0749 29.266 61.8849 28.144 61.0236 26.716C60.1622 25.288 59.7316 23.6673 59.7316 21.854C59.7316 20.0407 60.1622 18.42 61.0236 16.992C61.8849 15.564 63.0749 14.4533 64.5936 13.66C66.1349 12.844 67.8689 12.436 69.7956 12.436C71.7222 12.436 73.4449 12.844 74.9636 13.66C76.4822 14.4533 77.6722 15.564 78.5336 16.992C79.3949 18.42 79.8256 20.0407 79.8256 21.854C79.8256 23.6673 79.3949 25.288 78.5336 26.716C77.6722 28.144 76.4822 29.266 74.9636 30.082C73.4449 30.8753 71.7222 31.272 69.7956 31.272ZM69.7956 26.92C71.1556 26.92 72.2662 26.4667 73.1276 25.56C74.0116 24.6307 74.4536 23.3953 74.4536 21.854C74.4536 20.3127 74.0116 19.0887 73.1276 18.182C72.2662 17.2527 71.1556 16.788 69.7956 16.788C68.4356 16.788 67.3136 17.2527 66.4296 18.182C65.5456 19.0887 65.1036 20.3127 65.1036 21.854C65.1036 23.3953 65.5456 24.6307 66.4296 25.56C67.3136 26.4667 68.4356 26.92 69.7956 26.92ZM83.3709 5.772H88.6749V31H83.3709V5.772ZM102.301 31.272C100.375 31.272 98.6407 30.8753 97.0994 30.082C95.5807 29.266 94.3907 28.144 93.5294 26.716C92.6681 25.288 92.2374 23.6673 92.2374 21.854C92.2374 20.0407 92.6681 18.42 93.5294 16.992C94.3907 15.564 95.5807 14.4533 97.0994 13.66C98.6407 12.844 100.375 12.436 102.301 12.436C104.228 12.436 105.951 12.844 107.469 13.66C108.988 14.4533 110.178 15.564 111.039 16.992C111.901 18.42 112.331 20.0407 112.331 21.854C112.331 23.6673 111.901 25.288 111.039 26.716C110.178 28.144 108.988 29.266 107.469 30.082C105.951 30.8753 104.228 31.272 102.301 31.272ZM102.301 26.92C103.661 26.92 104.772 26.4667 105.633 25.56C106.517 24.6307 106.959 23.3953 106.959 21.854C106.959 20.3127 106.517 19.0887 105.633 18.182C104.772 17.2527 103.661 16.788 102.301 16.788C100.941 16.788 99.8194 17.2527 98.9354 18.182C98.0514 19.0887 97.6094 20.3127 97.6094 21.854C97.6094 23.3953 98.0514 24.6307 98.9354 25.56C99.8194 26.4667 100.941 26.92 102.301 26.92ZM124.717 31.272C122.767 31.272 121.011 30.8753 119.447 30.082C117.905 29.266 116.693 28.144 115.809 26.716C114.947 25.288 114.517 23.6673 114.517 21.854C114.517 20.0407 114.947 18.42 115.809 16.992C116.693 15.564 117.905 14.4533 119.447 13.66C121.011 12.844 122.767 12.436 124.717 12.436C126.643 12.436 128.321 12.844 129.749 13.66C131.199 14.4533 132.253 15.598 132.911 17.094L128.797 19.304C127.845 17.6267 126.473 16.788 124.683 16.788C123.3 16.788 122.155 17.2413 121.249 18.148C120.342 19.0547 119.889 20.29 119.889 21.854C119.889 23.418 120.342 24.6533 121.249 25.56C122.155 26.4667 123.3 26.92 124.683 26.92C126.496 26.92 127.867 26.0813 128.797 24.404L132.911 26.648C132.253 28.0987 131.199 29.232 129.749 30.048C128.321 30.864 126.643 31.272 124.717 31.272Z" fill="#02FBEC" fill-opacity="0.26"/>
<path d="M17.8494 17.922C17.8494 17.99 17.8154 18.466 17.7474 19.35H3.9094C4.15873 20.4833 4.74807 21.3787 5.6774 22.036C6.60673 22.6933 7.76273 23.022 9.1454 23.022C10.0974 23.022 10.9361 22.886 11.6614 22.614C12.4094 22.3193 13.1007 21.866 13.7354 21.254L16.5574 24.314C14.8347 26.286 12.3187 27.272 9.0094 27.272C6.94673 27.272 5.12207 26.8753 3.5354 26.082C1.94873 25.266 0.724732 24.144 -0.136602 22.716C-0.997935 21.288 -1.4286 19.6673 -1.4286 17.854C-1.4286 16.0633 -1.00927 14.454 -0.170601 13.026C0.690732 11.5753 1.85807 10.4533 3.3314 9.66C4.8274 8.844 6.4934 8.436 8.3294 8.436C10.1201 8.436 11.7407 8.82133 13.1914 9.592C14.6421 10.3627 15.7754 11.4733 16.5914 12.924C17.4301 14.352 17.8494 16.018 17.8494 17.922ZM8.3634 12.448C7.16207 12.448 6.1534 12.788 5.3374 13.468C4.5214 14.148 4.02273 15.0773 3.8414 16.256H12.8514C12.6701 15.1 12.1714 14.182 11.3554 13.502C10.5394 12.7993 9.54207 12.448 8.3634 12.448ZM21.3806 1.772H26.6846V27H21.3806V1.772ZM50.0761 27.272C48.1268 27.272 46.3701 26.8753 44.8061 26.082C43.2648 25.266 42.0521 24.144 41.1681 22.716C40.3068 21.288 39.8761 19.6673 39.8761 17.854C39.8761 16.0407 40.3068 14.42 41.1681 12.992C42.0521 11.564 43.2648 10.4533 44.8061 9.66C46.3701 8.844 48.1268 8.436 50.0761 8.436C52.0028 8.436 53.6801 8.844 55.1081 9.66C56.5588 10.4533 57.6128 11.598 58.2701 13.094L54.1561 15.304C53.2041 13.6267 51.8328 12.788 50.0421 12.788C48.6594 12.788 47.5148 13.2413 46.6081 14.148C45.7014 15.0547 45.2481 16.29 45.2481 17.854C45.2481 19.418 45.7014 20.6533 46.6081 21.56C47.5148 22.4667 48.6594 22.92 50.0421 22.92C51.8554 22.92 53.2268 22.0813 54.1561 20.404L58.2701 22.648C57.6128 24.0987 56.5588 25.232 55.1081 26.048C53.6801 26.864 52.0028 27.272 50.0761 27.272ZM69.7956 27.272C67.8689 27.272 66.1349 26.8753 64.5936 26.082C63.0749 25.266 61.8849 24.144 61.0236 22.716C60.1622 21.288 59.7316 19.6673 59.7316 17.854C59.7316 16.0407 60.1622 14.42 61.0236 12.992C61.8849 11.564 63.0749 10.4533 64.5936 9.66C66.1349 8.844 67.8689 8.436 69.7956 8.436C71.7222 8.436 73.4449 8.844 74.9636 9.66C76.4822 10.4533 77.6722 11.564 78.5336 12.992C79.3949 14.42 79.8256 16.0407 79.8256 17.854C79.8256 19.6673 79.3949 21.288 78.5336 22.716C77.6722 24.144 76.4822 25.266 74.9636 26.082C73.4449 26.8753 71.7222 27.272 69.7956 27.272ZM69.7956 22.92C71.1556 22.92 72.2662 22.4667 73.1276 21.56C74.0116 20.6307 74.4536 19.3953 74.4536 17.854C74.4536 16.3127 74.0116 15.0887 73.1276 14.182C72.2662 13.2527 71.1556 12.788 69.7956 12.788C68.4356 12.788 67.3136 13.2527 66.4296 14.182C65.5456 15.0887 65.1036 16.3127 65.1036 17.854C65.1036 19.3953 65.5456 20.6307 66.4296 21.56C67.3136 22.4667 68.4356 22.92 69.7956 22.92ZM83.3709 1.772H88.6749V27H83.3709V1.772ZM102.301 27.272C100.375 27.272 98.6407 26.8753 97.0994 26.082C95.5807 25.266 94.3907 24.144 93.5294 22.716C92.6681 21.288 92.2374 19.6673 92.2374 17.854C92.2374 16.0407 92.6681 14.42 93.5294 12.992C94.3907 11.564 95.5807 10.4533 97.0994 9.66C98.6407 8.844 100.375 8.436 102.301 8.436C104.228 8.436 105.951 8.844 107.469 9.66C108.988 10.4533 110.178 11.564 111.039 12.992C111.901 14.42 112.331 16.0407 112.331 17.854C112.331 19.6673 111.901 21.288 111.039 22.716C110.178 24.144 108.988 25.266 107.469 26.082C105.951 26.8753 104.228 27.272 102.301 27.272ZM102.301 22.92C103.661 22.92 104.772 22.4667 105.633 21.56C106.517 20.6307 106.959 19.3953 106.959 17.854C106.959 16.3127 106.517 15.0887 105.633 14.182C104.772 13.2527 103.661 12.788 102.301 12.788C100.941 12.788 99.8194 13.2527 98.9354 14.182C98.0514 15.0887 97.6094 16.3127 97.6094 17.854C97.6094 19.3953 98.0514 20.6307 98.9354 21.56C99.8194 22.4667 100.941 22.92 102.301 22.92ZM124.717 27.272C122.767 27.272 121.011 26.8753 119.447 26.082C117.905 25.266 116.693 24.144 115.809 22.716C114.947 21.288 114.517 19.6673 114.517 17.854C114.517 16.0407 114.947 14.42 115.809 12.992C116.693 11.564 117.905 10.4533 119.447 9.66C121.011 8.844 122.767 8.436 124.717 8.436C126.643 8.436 128.321 8.844 129.749 9.66C131.199 10.4533 132.253 11.598 132.911 13.094L128.797 15.304C127.845 13.6267 126.473 12.788 124.683 12.788C123.3 12.788 122.155 13.2413 121.249 14.148C120.342 15.0547 119.889 16.29 119.889 17.854C119.889 19.418 120.342 20.6533 121.249 21.56C122.155 22.4667 123.3 22.92 124.683 22.92C126.496 22.92 127.867 22.0813 128.797 20.404L132.911 22.648C132.253 24.0987 131.199 25.232 129.749 26.048C128.321 26.864 126.643 27.272 124.717 27.272Z" fill="#02FBEC" fill-opacity="0.45"/>
<path d="M17.8494 13.922C17.8494 13.99 17.8154 14.466 17.7474 15.35H3.9094C4.15873 16.4833 4.74807 17.3787 5.6774 18.036C6.60673 18.6933 7.76273 19.022 9.1454 19.022C10.0974 19.022 10.9361 18.886 11.6614 18.614C12.4094 18.3193 13.1007 17.866 13.7354 17.254L16.5574 20.314C14.8347 22.286 12.3187 23.272 9.0094 23.272C6.94673 23.272 5.12207 22.8753 3.5354 22.082C1.94873 21.266 0.724732 20.144 -0.136602 18.716C-0.997935 17.288 -1.4286 15.6673 -1.4286 13.854C-1.4286 12.0633 -1.00927 10.454 -0.170601 9.026C0.690732 7.57533 1.85807 6.45333 3.3314 5.66C4.8274 4.844 6.4934 4.436 8.3294 4.436C10.1201 4.436 11.7407 4.82133 13.1914 5.592C14.6421 6.36267 15.7754 7.47333 16.5914 8.924C17.4301 10.352 17.8494 12.018 17.8494 13.922ZM8.3634 8.448C7.16207 8.448 6.1534 8.788 5.3374 9.468C4.5214 10.148 4.02273 11.0773 3.8414 12.256H12.8514C12.6701 11.1 12.1714 10.182 11.3554 9.502C10.5394 8.79933 9.54207 8.448 8.3634 8.448ZM21.3806 -2.228H26.6846V23H21.3806V-2.228ZM50.0761 23.272C48.1268 23.272 46.3701 22.8753 44.8061 22.082C43.2648 21.266 42.0521 20.144 41.1681 18.716C40.3068 17.288 39.8761 15.6673 39.8761 13.854C39.8761 12.0407 40.3068 10.42 41.1681 8.992C42.0521 7.564 43.2648 6.45333 44.8061 5.66C46.3701 4.844 48.1268 4.436 50.0761 4.436C52.0028 4.436 53.6801 4.844 55.1081 5.66C56.5588 6.45333 57.6128 7.598 58.2701 9.094L54.1561 11.304C53.2041 9.62667 51.8328 8.788 50.0421 8.788C48.6594 8.788 47.5148 9.24133 46.6081 10.148C45.7014 11.0547 45.2481 12.29 45.2481 13.854C45.2481 15.418 45.7014 16.6533 46.6081 17.56C47.5148 18.4667 48.6594 18.92 50.0421 18.92C51.8554 18.92 53.2268 18.0813 54.1561 16.404L58.2701 18.648C57.6128 20.0987 56.5588 21.232 55.1081 22.048C53.6801 22.864 52.0028 23.272 50.0761 23.272ZM69.7956 23.272C67.8689 23.272 66.1349 22.8753 64.5936 22.082C63.0749 21.266 61.8849 20.144 61.0236 18.716C60.1622 17.288 59.7316 15.6673 59.7316 13.854C59.7316 12.0407 60.1622 10.42 61.0236 8.992C61.8849 7.564 63.0749 6.45333 64.5936 5.66C66.1349 4.844 67.8689 4.436 69.7956 4.436C71.7222 4.436 73.4449 4.844 74.9636 5.66C76.4822 6.45333 77.6722 7.564 78.5336 8.992C79.3949 10.42 79.8256 12.0407 79.8256 13.854C79.8256 15.6673 79.3949 17.288 78.5336 18.716C77.6722 20.144 76.4822 21.266 74.9636 22.082C73.4449 22.8753 71.7222 23.272 69.7956 23.272ZM69.7956 18.92C71.1556 18.92 72.2662 18.4667 73.1276 17.56C74.0116 16.6307 74.4536 15.3953 74.4536 13.854C74.4536 12.3127 74.0116 11.0887 73.1276 10.182C72.2662 9.25267 71.1556 8.788 69.7956 8.788C68.4356 8.788 67.3136 9.25267 66.4296 10.182C65.5456 11.0887 65.1036 12.3127 65.1036 13.854C65.1036 15.3953 65.5456 16.6307 66.4296 17.56C67.3136 18.4667 68.4356 18.92 69.7956 18.92ZM83.3709 -2.228H88.6749V23H83.3709V-2.228ZM102.301 23.272C100.375 23.272 98.6407 22.8753 97.0994 22.082C95.5807 21.266 94.3907 20.144 93.5294 18.716C92.6681 17.288 92.2374 15.6673 92.2374 13.854C92.2374 12.0407 92.6681 10.42 93.5294 8.992C94.3907 7.564 95.5807 6.45333 97.0994 5.66C98.6407 4.844 100.375 4.436 102.301 4.436C104.228 4.436 105.951 4.844 107.469 5.66C108.988 6.45333 110.178 7.564 111.039 8.992C111.901 10.42 112.331 12.0407 112.331 13.854C112.331 15.6673 111.901 17.288 111.039 18.716C110.178 20.144 108.988 21.266 107.469 22.082C105.951 22.8753 104.228 23.272 102.301 23.272ZM102.301 18.92C103.661 18.92 104.772 18.4667 105.633 17.56C106.517 16.6307 106.959 15.3953 106.959 13.854C106.959 12.3127 106.517 11.0887 105.633 10.182C104.772 9.25267 103.661 8.788 102.301 8.788C100.941 8.788 99.8194 9.25267 98.9354 10.182C98.0514 11.0887 97.6094 12.3127 97.6094 13.854C97.6094 15.3953 98.0514 16.6307 98.9354 17.56C99.8194 18.4667 100.941 18.92 102.301 18.92ZM124.717 23.272C122.767 23.272 121.011 22.8753 119.447 22.082C117.905 21.266 116.693 20.144 115.809 18.716C114.947 17.288 114.517 15.6673 114.517 13.854C114.517 12.0407 114.947 10.42 115.809 8.992C116.693 7.564 117.905 6.45333 119.447 5.66C121.011 4.844 122.767 4.436 124.717 4.436C126.643 4.436 128.321 4.844 129.749 5.66C131.199 6.45333 132.253 7.598 132.911 9.094L128.797 11.304C127.845 9.62667 126.473 8.788 124.683 8.788C123.3 8.788 122.155 9.24133 121.249 10.148C120.342 11.0547 119.889 12.29 119.889 13.854C119.889 15.418 120.342 16.6533 121.249 17.56C122.155 18.4667 123.3 18.92 124.683 18.92C126.496 18.92 127.867 18.0813 128.797 16.404L132.911 18.648C132.253 20.0987 131.199 21.232 129.749 22.048C128.321 22.864 126.643 23.272 124.717 23.272Z" fill="#02FBEC"/>
</g>
<defs>
<clipPath id="clip0_2_3">
<rect width="134" height="30" rx="9" fill="white"/>
</clipPath>
</defs>
</svg>
